# xmcd CD database file
#
# Track frame offsets:
#	150
#	20212
#	39540
#	53905
#	71805
#	89391
#	120699
#	147080
#	163201
#	200814
#	230729
#	248766
#	265365
#
# Disc length: 3812 seconds
#
# Revision: 0
# Processed by: cddbd v1.5.1PL0 Copyright (c) Steve Scherf et al.
# Submitted via: CDex 1.51
#
DISCID=c90ee20d
DTITLE=Brian Nova Quartet - Blue And Bossa Nova
DYEAR=2001
DGENRE=Jazz
TTITLE0=Just Friends
TTITLE1=So Danco Samba
TTITLE2=Bluesology
TTITLE3=I'll Remember You
TTITLE4=At Long Lost Love
TTITLE5=Gee Baby Ain't I Good To You
TTITLE6=O Pato
TTITLE7=I'll Remember April
TTITLE8=Sabor A Mi
TTITLE9=Long Ago And Far Away
TTITLE10=Estate
TTITLE11=Don't Let It Go To Your Head
TTITLE12=Wave
EXTD=YEAR: 2001
EXTT0=
EXTT1=
EXTT2=
EXTT3=
EXTT4=
EXTT5=
EXTT6=
EXTT7=
EXTT8=
EXTT9=
EXTT10=
EXTT11=
EXTT12=
PLAYORDER=
